<?xml version="1.0" encoding="UTF-8" standalone="no"?>
<svg
   version="1.1"
   id="svg2"
   viewBox="0 0 60 40"
   height="35.433071"
   width="53.149605"
   sodipodi:docname="button.download.1.svg"
   inkscape:version="1.1.1 (3bf5ae0d25, 2021-09-20)"
   xmlns:inkscape="http://www.inkscape.org/namespaces/inkscape"
   xmlns:sodipodi="http://sodipodi.sourceforge.net/DTD/sodipodi-0.dtd"
   xmlns="http://www.w3.org/2000/svg"
   xmlns:svg="http://www.w3.org/2000/svg"
   xmlns:rdf="http://www.w3.org/1999/02/22-rdf-syntax-ns#"
   xmlns:cc="http://creativecommons.org/ns#"
   xmlns:dc="http://purl.org/dc/elements/1.1/">
  <sodipodi:namedview
     pagecolor="#ffffff"
     bordercolor="#666666"
     borderopacity="1"
     objecttolerance="10"
     gridtolerance="10"
     guidetolerance="10"
     inkscape:pageopacity="0"
     inkscape:pageshadow="2"
     inkscape:window-width="1992"
     inkscape:window-height="995"
     id="namedview7"
     showgrid="false"
     inkscape:zoom="13.320889"
     inkscape:cx="28.526625"
     inkscape:cy="21.732784"
     inkscape:window-x="653"
     inkscape:window-y="95"
     inkscape:window-maximized="0"
     inkscape:current-layer="svg2"
     inkscape:pagecheckerboard="0"
     showguides="true"
     inkscape:guide-bbox="true">
    <sodipodi:guide
       position="29.915255,35.847458"
       orientation="1,0"
       id="guide1261" />
  </sodipodi:namedview>
  <defs
     id="defs4" />
  <metadata
     id="metadata7">
    <rdf:RDF>
      <cc:Work
         rdf:about="">
        <dc:format>image/svg+xml</dc:format>
        <dc:type
           rdf:resource="http://purl.org/dc/dcmitype/StillImage" />
        <dc:creator>
          <cc:Agent>
            <dc:title>www.soscisurvey.de</dc:title>
          </cc:Agent>
        </dc:creator>
        <dc:rights>
          <cc:Agent>
            <dc:title>(c) 2015</dc:title>
          </cc:Agent>
        </dc:rights>
      </cc:Work>
    </rdf:RDF>
  </metadata>
  <g
     id="path10386"
     style="fill:#ff9900;fill-opacity:1;stroke-width:1.08964;stroke-miterlimit:4;stroke-dasharray:none"
     transform="matrix(1.0413454,0,0,1.0307274,0.49840578,-0.44139909)">
    <path
       style="color:#000000;fill:#ff9900;fill-opacity:1;stroke-width:1.08964;stroke-linecap:round;stroke-linejoin:round;stroke-miterlimit:4;stroke-dasharray:none"
       d="M 17.317406,26.016959 28.132384,37.211588 39.004418,26.016959 H 33.503937 L 33.381401,15.41676 22.922858,15.394244 22.796893,26.016959 Z"
       id="path10390" />
    <path
       style="color:#000000;fill:#ff9900;fill-opacity:1;stroke-width:1.08964;stroke-linecap:round;stroke-linejoin:round;stroke-miterlimit:4;stroke-dasharray:none"
       d="m 22.927734,13.417969 a 1.9757525,1.9757525 0 0 0 -1.980468,1.953125 l -0.103516,8.669922 h -3.525391 a 1.9757525,1.9757525 0 0 0 -1.421875,3.347656 l 10.814453,11.195312 a 1.9757525,1.9757525 0 0 0 2.837891,0.0039 L 40.421875,27.392578 a 1.9757525,1.9757525 0 0 0 -1.417969,-3.351562 h -3.546875 l -0.09961,-8.646485 a 1.9757525,1.9757525 0 0 0 -1.972656,-1.953125 z m 1.947266,3.955078 6.552734,0.01563 0.101563,8.65039 a 1.9757525,1.9757525 0 0 0 1.974609,1.953125 h 0.828125 l -6.197265,6.38086 -6.16211,-6.38086 h 0.824219 a 1.9757525,1.9757525 0 0 0 1.974609,-1.951171 z"
       id="path10392" />
  </g>
  <path
     style="font-variation-settings:normal;opacity:1;vector-effect:none;fill:none;fill-opacity:1;stroke:none;stroke-width:3.95111;stroke-linecap:round;stroke-linejoin:round;stroke-miterlimit:4;stroke-dasharray:none;stroke-dashoffset:0;stroke-opacity:1;-inkscape-stroke:none;stop-color:#000000;stop-opacity:1"
     d="m 22.632475,30.829834 h 15.85431 c 7.908192,0 15.631613,-3.373088 15.702598,-10.749888 0.07098,-7.376803 -5.974407,-8.177617 -7.282364,-8.647388 C 44.502859,6.8358662 42.794203,5.0329662 39.307112,4.0938031 35.820021,3.15464 30.609951,2.852375 28.282544,6.4028109 30.256953,3.3503317 24.253478,1.8783644 21.660219,2.266214 c -7.038389,1.0526667 -8.130701,7.746385 -8.130701,9.0307 -1.800885,0.877322 -6.5821942,2.143648 -6.4479294,8.783032 0.1342653,6.639382 6.5059274,10.749888 15.5508864,10.749888 z"
     id="path1875"
     sodipodi:nodetypes="zzzczcsczz" />
  <path
     style="color:#000000;fill:#555555;fill-opacity:1;stroke-width:1;stroke-linecap:round;stroke-linejoin:round;-inkscape-stroke:none"
     d="m 43.72179,32.198145 c 2.852593,-0.394819 4.309771,-0.841358 6.62493,-2.237111 3.374152,-2.034194 5.858048,-5.473627 5.900279,-9.862371 0.04079,-4.239598 -1.877924,-7.09477 -3.984367,-8.588053 C 51.209411,10.763969 50.145563,10.317326 49.278934,10.020887 48.762729,9.8443136 48.597311,9.8079546 48.284368,9.7209289 47.216726,7.7626327 46.203593,6.1640664 44.963046,4.9457622 43.548089,3.5561765 41.831052,2.663509 39.847843,2.12938 37.907789,1.6068738 35.521212,1.2449581 33.105538,1.5435564 31.908647,1.6915027 30.673899,2.0359336 29.542185,2.6286386 28.94038,1.9977702 28.257641,1.5119646 27.526612,1.1872308 25.492581,0.28368444 23.262465,-0.0323282 21.353793,0.25313402 17.213203,0.87240368 14.561024,3.3104297 13.17557,5.6725055 12.198829,7.3377625 11.846896,8.7210527 11.668467,9.8920462 10.752949,10.280817 9.5028344,10.852606 8.2007015,12.017922 6.4196552,13.61183 4.9468217,16.315006 5.0237844,20.120808 c 0.079993,3.955635 2.138333,7.341371 5.3287606,9.504031 1.738031,1.178138 2.964513,1.802912 5.255845,2.338476 0,0 -3.797727,-4.079769 -4.542256,-5.458311 -0.74453,-1.378543 -1.6405569,-4.457711 -1.6405569,-4.457711 -0.1767099,-0.623359 -0.2727459,-1.291406 -0.287258,-2.009024 -0.057302,-2.833575 0.7940618,-4.08221 1.8203229,-5.000638 1.02626,-0.918428 2.28418,-1.331955 3.479967,-1.914496 0.703071,-0.342393 1.14862,-1.050344 1.14914,-1.825917 0,-0.07076 0.22681,-2.0103382 1.147108,-3.5793628 0.920297,-1.5690246 2.335375,-3.0050462 5.233166,-3.4384422 0.684585,-0.1023873 2.752122,0.1234667 3.874538,0.62206 0.494496,0.2196621 0.676855,0.427205 0.722027,0.4650353 -0.940489,2.1393915 1.902197,3.9093801 3.443355,2.1439935 0.767667,-1.1710694 1.963084,-1.7214744 3.606065,-1.9245613 1.642981,-0.2030868 3.606812,0.056431 5.153846,0.4730878 1.50388,0.4050333 2.384734,0.8817764 3.296916,1.7776021 0.912181,0.8958257 1.855155,2.3116116 3.01624,4.5315766 0.237451,0.454381 0.638978,0.803663 1.124735,0.978386 0.628483,0.225729 1.096271,0.307055 1.728796,0.523417 0.632524,0.216361 1.319438,0.517832 1.932184,0.952215 1.225491,0.868765 2.295925,2.100992 2.265739,5.238189 -0.02875,2.988048 -1.278084,4.712293 -2.833351,6.2675 z"
     id="path10384"
     sodipodi:nodetypes="csssscssscssscsssczcssccsssccsssccssscc" />
</svg>
